<?xml version="1.0" standalone="no"?>
<!DOCTYPE svg PUBLIC "-//W3C//DTD SVG 1.1//EN" "http://www.w3.org/Graphics/SVG/1.1/DTD/svg11.dtd" >
<svg xmlns="http://www.w3.org/2000/svg">
<metadata>Generated by IcoMoon</metadata>
<defs>
<font id="icomoon" horiz-adv-x="1024">
<font-face units-per-em="1024" ascent="960" descent="-64" />
<missing-glyph horiz-adv-x="1024" />
<glyph unicode="&#x20;" horiz-adv-x="512" d="" />
<glyph unicode="&#xe900;" glyph-name="check" d="M117.295 369.804c-5.585 3.724 74.473 65.164 102.4 61.44 81.92-9.309 115.433-161.978 117.295-163.84 1.862 0 13.033 3.724 52.131 67.025 91.229 150.807 247.622 305.338 353.745 385.396 72.611 55.855 126.604 94.953 132.189 94.953 11.171 0 33.513-14.895 33.513-24.204s-143.36-111.709-284.858-296.029c-94.953-122.88-107.985-154.531-152.669-230.865-33.513-57.716-59.578-102.4-61.44-104.262s-3.724-3.724-5.585-5.585c-20.48-16.756-100.538-74.473-109.847-74.473-13.033 0-42.822 201.076-176.873 290.444z" />
<glyph unicode="&#xe901;" glyph-name="launch" d="M322.095 151.971l14.895-13.033c0 0-24.204-50.269-117.295-72.611-33.513-7.447-98.676-9.309-98.676-9.309s0 53.993 7.447 85.644c20.48 113.571 78.196 130.327 78.196 130.327l7.447-14.895c0 0-29.789-42.822-33.513-80.058-1.862-16.756-5.585-67.025-5.585-67.025s44.684-1.862 70.749 5.585c53.993 14.895 76.335 35.375 76.335 35.375zM817.338 548.538c-61.44-91.229-275.549-255.069-275.549-255.069l3.724-135.913c0 0-96.815-85.644-106.124-80.058-11.171 9.309-11.171 115.433-35.375 117.295-18.618 1.862-29.789-22.342-61.44-18.618-22.342 1.862-102.4 85.644-104.262 107.985s11.171 33.513 18.618 50.269c0 3.724 7.447 11.171 0 14.895-27.927 13.033-113.571 20.48-113.571 24.204 0 24.204 78.196 104.262 78.196 104.262h139.636c0 0 161.978 201.076 227.142 256.931 119.156 104.262 314.647 104.262 314.647 104.262s7.447-152.669-85.644-290.444zM664.669 660.247c-33.513 0-61.44-27.927-61.44-61.44s27.927-61.44 61.44-61.44c33.513 0 61.44 27.927 61.44 61.44s-27.927 61.44-61.44 61.44z" />
<glyph unicode="&#xe902;" glyph-name="phone" d="M217.833 814.778c-13.033-11.171 33.513 26.065 63.302 0s161.978-169.425 145.222-147.084c-16.756 22.342 37.236-46.545 3.724-76.335-26.065-24.204-80.058-61.44-83.782-76.335-3.724-13.033 67.025-113.571 94.953-143.36s117.295-87.505 135.913-87.505 53.993 59.578 74.473 80.058c18.618 18.618 57.716 22.342 80.058 3.724s128.465-122.88 152.669-147.084c26.065-24.204 7.447-53.993-11.171-74.473s-61.44-57.716-61.44-57.716l-39.098 39.098-33.513-53.993c0 0-286.72 0-441.251 188.044-173.149 208.524-171.287 422.633-171.287 422.633l67.025 24.204-40.96 40.96 65.164 65.164z" />
<glyph unicode="&#xe903;" glyph-name="c-check" d="M201.874 386.56c-4.389 2.926 58.514 51.2 80.457 48.274 64.366-7.314 90.697-127.269 92.16-128.731 1.463 0 10.24 2.926 40.96 52.663 71.68 118.491 194.56 239.909 277.943 302.811 57.051 43.886 99.474 74.606 103.863 74.606 8.777 0 26.331-11.703 26.331-19.017s-112.64-87.771-223.817-232.594c-74.606-96.549-84.846-121.417-119.954-181.394-26.331-45.349-46.811-80.457-48.274-81.92s-2.926-2.926-4.389-4.389c-16.091-13.166-78.994-58.514-86.309-58.514-10.24 0-33.646 157.989-138.971 228.206zM512 930.743c-266.24 0-482.743-216.503-482.743-482.743s216.503-482.743 482.743-482.743c266.24 0 482.743 216.503 482.743 482.743s-216.503 482.743-482.743 482.743zM513.463-20.114c-257.463 0-466.651 207.726-466.651 466.651 0 257.463 209.189 466.651 466.651 466.651 258.926 0 466.651-209.189 466.651-466.651 0-258.926-207.726-466.651-466.651-466.651z" />
<glyph unicode="&#xe904;" glyph-name="c-launch" d="M512 930.743c-266.24 0-482.743-216.503-482.743-482.743s216.503-482.743 482.743-482.743c266.24 0 482.743 216.503 482.743 482.743s-216.503 482.743-482.743 482.743zM513.463-20.114c-257.463 0-466.651 207.726-466.651 466.651 0 257.463 209.189 466.651 466.651 466.651s466.651-209.189 466.651-466.651c0-258.926-207.726-466.651-466.651-466.651zM362.789 215.406l11.703-10.24c0 0-19.017-39.497-92.16-57.051-24.869-5.851-77.531-7.314-77.531-7.314s0 42.423 5.851 67.291c16.091 89.234 61.44 102.4 61.44 102.4l5.851-11.703c0 0-23.406-33.646-26.331-62.903-1.463-13.166-4.389-52.663-4.389-52.663s35.109-1.463 55.589 4.389c42.423 11.703 59.977 27.794 59.977 27.794zM751.909 526.994c-48.274-71.68-216.503-200.411-216.503-200.411l2.926-106.789c0 0-76.069-67.291-83.383-62.903-8.777 7.314-8.777 90.697-27.794 92.16-14.629 1.463-23.406-17.554-48.274-14.629-17.554 1.463-80.457 67.291-81.92 84.846s8.777 26.331 14.629 39.497c0 2.926 5.851 8.777 0 11.703-21.943 10.24-89.234 16.091-89.234 19.017 0 19.017 61.44 81.92 61.44 81.92h109.714c0 0 127.269 157.989 178.469 201.874 93.623 81.92 247.223 81.92 247.223 81.92s5.851-119.954-67.291-228.206zM631.954 614.766c-26.331 0-48.274-21.943-48.274-48.274s21.943-48.274 48.274-48.274 48.274 21.943 48.274 48.274c0 26.331-21.943 48.274-48.274 48.274z" />
<glyph unicode="&#xe905;" glyph-name="c-phone" d="M512 930.743c-266.24 0-482.743-216.503-482.743-482.743s216.503-482.743 482.743-482.743c266.24 0 482.743 216.503 482.743 482.743s-216.503 482.743-482.743 482.743zM513.463-20.114c-257.463 0-466.651 207.726-466.651 466.651 0 257.463 209.189 466.651 466.651 466.651 258.926 0 466.651-209.189 466.651-466.651 0-258.926-207.726-466.651-466.651-466.651zM280.869 736.183c-10.24-8.777 26.331 20.48 49.737 0s127.269-133.12 114.103-115.566c-13.166 17.554 29.257-36.571 2.926-59.977-20.48-19.017-62.903-48.274-65.829-59.977-2.926-10.24 52.663-89.234 74.606-112.64s92.16-68.754 106.789-68.754 42.423 46.811 58.514 62.903c14.629 14.629 45.349 17.554 62.903 2.926s100.937-96.549 119.954-115.566 5.851-42.423-8.777-58.514c-14.629-16.091-48.274-45.349-48.274-45.349l-30.72 30.72-26.331-42.423c0 0-225.28 0-346.697 147.749-136.046 165.303-134.583 333.531-134.583 333.531l52.663 19.017-32.183 32.183 51.2 49.737z" />
<glyph unicode="&#xe906;" glyph-name="cursor" d="M359.331 271.127c7.447-18.618 26.065-29.789 44.684-29.789 20.48 1.862 37.236 14.895 42.822 33.513l26.065 96.815 227.142-227.142c18.618-18.618 46.545-18.618 65.164 0l57.716 57.716c18.618 18.618 18.618 46.545 0 65.164l-227.142 229.004 96.815 26.065c18.618 5.585 33.513 22.342 33.513 42.822 1.862 20.48-11.171 39.098-29.789 44.684l-446.836 169.425c-16.756 5.585-35.375 1.862-48.407-11.171s-16.756-31.651-11.171-48.407l169.425-448.698z" />
<glyph unicode="&#xe907;" glyph-name="design" d="M444.975 431.244c-29.789 11.171-61.44 3.724-68.887-14.895-3.724-9.309-9.309-46.545-29.789-61.44s-55.855-11.171-55.855-11.171c83.782-27.927 182.458 5.585 191.767 27.927 7.447 20.48-7.447 46.545-37.236 59.578zM450.56 446.138l27.927-26.065c3.724-3.724 9.309-3.724 13.033 0l316.509 348.16c22.342 27.927 27.927 57.716 5.585 83.782-22.342 27.927-67.025 14.895-89.367-9.309l-273.687-385.396c-3.724-1.862-1.862-7.447 0-11.171zM746.589 846.429c11.171 7.447 27.927 5.585 27.927 5.585s-11.171-5.585-20.48-14.895c-7.447-7.447-9.309-18.618-9.309-18.618l-13.033 13.033c-1.862 0 5.585 9.309 14.895 14.895zM631.156 47.709c-26.065 14.895-24.204 67.025-24.204 67.025h-186.182c0 0 1.862-52.131-24.204-67.025-22.342-13.033-22.342-22.342-11.171-22.342h247.622c7.447 0 33.513 0-1.862 22.342zM929.047 738.444h-119.156l-48.407-55.855h143.36v-422.633h-780.102v422.633h452.422l37.236 55.855h-519.447c-14.895 0-26.065-11.171-26.065-26.065v-536.204c0-14.895 11.171-26.065 26.065-26.065h834.095c14.895 0 26.065 11.171 26.065 26.065v536.204c0 14.895-11.171 26.065-26.065 26.065z" />
<glyph unicode="&#xe908;" glyph-name="mobile" d="M726.109 712.378v0 117.295c0 33.513-27.927 61.44-61.44 61.44h-284.858c-35.375 0-63.302-27.927-63.302-61.44v-44.684c0 0-1.862 0-1.862-1.862v-31.651c0 0 0-1.862 1.862-1.862v0-39.098c0 0-1.862 0-1.862-1.862v-59.578c0 0 0-1.862 1.862-1.862v0-14.895c0 0-1.862 0-1.862-1.862v-59.578c0 0 0-1.862 1.862-1.862v0-463.593c0-33.513 27.927-61.44 61.44-61.44h282.996c35.375 0 61.44 27.927 61.44 61.44v539.927h3.724c0 0 1.862 0 1.862 1.862l-1.862 65.164c1.862 0 1.862 0 0 0zM521.309 868.771c1.862 0 3.724-1.862 3.724-3.724s-1.862-3.724-3.724-3.724c-1.862 0-3.724 1.862-3.724 3.724s1.862 3.724 3.724 3.724zM491.52 840.844h59.578c1.862 0 3.724-1.862 3.724-3.724s-1.862-3.724-3.724-3.724h-59.578c-1.862 0-3.724 1.862-3.724 3.724s1.862 3.724 3.724 3.724zM456.145 844.567c3.724 0 7.447-3.724 7.447-7.447s-3.724-7.447-7.447-7.447c-3.724 0-7.447 3.724-7.447 7.447s3.724 7.447 7.447 7.447zM521.309 73.775c-16.756 0-31.651 14.895-31.651 31.651s14.895 31.651 31.651 31.651c16.756 0 31.651-14.895 31.651-31.651s-14.895-31.651-31.651-31.651zM700.044 151.971h-357.469v636.742h357.469v-636.742z" />
<glyph unicode="&#xe909;" glyph-name="pted" d="M93.091 771.956c0 0 80.058-50.269 173.149-18.618s175.011 39.098 223.418 1.862v-558.545c0 0-89.367 50.269-176.873 22.342-94.953-31.651-199.215 3.724-219.695 27.927v525.033zM975.593 129.629v539.927h-22.342v-485.935c-31.651-39.098-158.255-42.822-249.484-11.171-87.505 29.789-176.873-22.342-176.873-22.342s-18.618-14.895-39.098 0c0 0-89.367 50.269-176.873 22.342-93.091-29.789-217.833-26.065-249.484 13.033v484.073h-22.342v-541.789h936.495zM921.6 771.956c0 0-80.058-50.269-173.149-18.618s-175.011 39.098-223.418 1.862v-558.545c0 0 89.367 50.269 176.873 22.342 91.229-29.789 197.353 5.585 217.833 29.789l1.862 523.171z" />
<glyph unicode="&#xe90a;" glyph-name="reptrack" d="M532.48 420.073c-5.585 3.724-16.756 3.724-24.204 0l-78.196-48.407c-5.585-3.724-9.309-1.862-7.447 5.585l22.342 89.367c1.862 7.447-1.862 16.756-7.447 22.342l-70.749 59.578c-5.585 5.585-3.724 9.309 3.724 9.309l91.229 5.585c7.447 0 16.756 7.447 18.618 13.033l33.513 85.644c3.724 7.447 7.447 7.447 11.171 0l33.513-85.644c3.724-7.447 11.171-13.033 18.618-13.033l91.229-5.585c7.447 0 9.309-5.585 3.724-9.309l-70.749-59.578c-5.585-5.585-9.309-14.895-7.447-22.342l22.342-89.367c1.862-7.447-1.862-9.309-7.447-5.585l-76.335 48.407zM917.876 641.629v-273.687c0-81.92-67.025-148.945-148.945-148.945h-238.313l-167.564-167.564c-5.585-5.585-11.171-7.447-16.756-7.447-3.724 0-5.585 0-9.309 1.862-9.309 3.724-14.895 13.033-14.895 22.342v148.945h-50.269c-81.92 0-148.945 67.025-148.945 148.945v275.549c0 81.92 67.025 148.945 148.945 148.945h497.105c81.92 0 148.945-67.025 148.945-148.945zM869.469 641.629c0 53.993-44.684 98.676-98.676 98.676h-498.967c-53.993 0-98.676-44.684-98.676-98.676v-273.687c0-53.993 44.684-98.676 98.676-98.676h98.676v-139.636l139.636 139.636h258.793c53.993 0 98.676 44.684 98.676 98.676v273.687z" />
<glyph unicode="&#xe90b;" glyph-name="responsive" d="M716.8 431.244v-53.993h63.302v53.993h-63.302zM355.607 643.491h-106.124v-137.775h106.124v137.775zM672.116 643.491h-106.124v-139.636h46.545c9.309 20.48 27.927 33.513 50.269 33.513h9.309v106.124zM515.724 643.491h-107.985v-137.775h107.985v137.775zM902.982 533.644h-42.822v-72.611h42.822v72.611zM716.8 340.015h-1.862v-53.993h106.124v40.96c-11.171 1.862-14.895 5.585-24.204 13.033h-80.058zM176.873 328.844v387.258h565.993v-176.873h35.375v195.491c0 9.309-7.447 18.618-18.618 18.618h-599.505c-9.309 0-18.618-7.447-18.618-18.618v-467.316c0-9.309 7.447-18.618 18.618-18.618h448.698v78.196h-431.942v1.862zM830.371 582.051h102.4c11.171 0 18.618-9.309 18.618-18.618v-184.32c0-11.171-9.309-18.618-18.618-18.618h-102.4c-11.171 0-18.618 9.309-18.618 18.618v184.32c0 11.171 9.309 18.618 18.618 18.618zM830.371 403.316h102.4v160.116h-102.4v-160.116zM830.371 563.433v0 0 0 0 0zM869.469 377.251h24.204c5.585 0 9.309 3.724 9.309 9.309s-3.724 9.309-9.309 9.309h-24.204c-5.585 0-9.309-3.724-9.309-9.309s3.724-9.309 9.309-9.309zM662.807 501.993c-9.309 0-18.618-7.447-18.618-18.618v-294.167c0-9.309 7.447-18.618 18.618-18.618h214.109c9.309 0 18.618 7.447 18.618 18.618v135.913h-35.375v-117.295h-176.873v258.793h100.538v35.375h-121.018zM310.924 99.84c-9.309 0-18.618 7.447-18.618 18.618 0 9.309 7.447 18.618 18.618 18.618h102.4v87.505h96.815v-87.505h102.4c9.309 0 18.618-7.447 18.618-18.618 0-9.309-7.447-18.618-18.618-18.618h-301.615zM424.495 276.713c-7.447 0-11.171 5.585-11.171 11.171 0 7.447 5.585 11.171 11.171 11.171h72.611c7.447 0 11.171-5.585 11.171-11.171 0-7.447-5.585-11.171-11.171-11.171h-72.611z" />
<glyph unicode="&#xe90c;" glyph-name="seo" d="M264.378 580.189c0 22.342 3.724 44.684 11.171 65.164-26.065-29.789-40.96-68.887-40.96-111.709 0-93.091 76.335-169.425 169.425-169.425 31.651 0 61.44 9.309 87.505 24.204-9.309-1.862-20.48-1.862-31.651-1.862-107.985-1.862-195.491 85.644-195.491 193.629zM888.087 174.313l-147.084 145.222c-18.618 18.618-44.684 22.342-63.302 11.171l-26.065 26.065c40.96 52.131 67.025 117.295 67.025 188.044 0 165.702-134.051 299.753-299.753 299.753s-299.753-134.051-299.753-299.753c0-165.702 134.051-299.753 299.753-299.753 67.025 0 130.327 22.342 180.596 59.578l26.065-26.065c-11.171-18.618-7.447-44.684 11.171-63.302l147.084-145.222c20.48-20.48 52.131-22.342 70.749-5.585l39.098 39.098c16.756 18.618 14.895 50.269-5.585 70.749zM418.909 302.778c-134.051 0-240.175 107.985-240.175 240.175 0 134.051 107.985 240.175 240.175 240.175 134.051 0 240.175-107.985 240.175-240.175s-107.985-240.175-240.175-240.175z" />
<glyph unicode="&#xe90d;" glyph-name="social" d="M57.716 542.953h309.062v-523.171h-309.062v523.171zM951.389 461.033c0 31.651-31.651 80.058-81.92 80.058l-139.636 1.862c0 0 1.862 89.367 1.862 137.775s35.375 156.393 35.375 156.393l-121.018 1.862c0 0-106.124-281.135-160.116-336.989-39.098-40.96-122.88-40.96-122.88-40.96v-361.193h89.367c35.375 0 152.669-72.611 180.596-72.611h208.524c59.578 0 113.571 87.505 111.709 126.604-3.724 39.098-1.862 277.411-1.862 307.2zM910.429 187.345c1.862-35.375-48.407-117.295-104.262-117.295h-176.873c-27.927 0-135.913 67.025-169.425 67.025l-94.953 1.862v284.858c0 0 115.433 9.309 158.255 59.578 65.164 78.196 150.807 307.2 150.807 307.2l37.236-1.862c0 0-14.895-80.058-16.756-124.742-1.862-40.96-11.171-163.84-11.171-163.84l148.945-3.724c48.407 0 76.335-44.684 76.335-74.473s0-197.353 1.862-234.589z" />
<glyph unicode="&#xe90e;" glyph-name="vidtour" d="M793.135 602.531v14.895c0 20.48-16.756 39.098-39.098 39.098h-381.673c-20.48 0-39.098-16.756-39.098-39.098v-342.575c0-20.48 16.756-39.098 39.098-39.098h16.756v344.436c0 13.033 9.309 24.204 18.618 24.204h385.396zM35.375 563.433h-11.171v-16.756c0-20.48 16.756-39.098 39.098-39.098h240.175v55.855h-268.102zM91.229 470.342h-11.171v-16.756c0-20.48 16.756-39.098 39.098-39.098h184.32v55.855h-212.247zM163.84 380.975h-9.309v-16.756c0-20.48 16.756-39.098 39.098-39.098h111.709v55.855h-141.498zM927.185 196.655h-448.698v316.509h448.698v-316.509zM940.218 563.433h-474.764c-20.48 0-39.098-16.756-39.098-39.098v-342.575c0-20.48 16.756-39.098 39.098-39.098h474.764c20.48 0 39.098 16.756 39.098 39.098v342.575c0 22.342-16.756 39.098-39.098 39.098zM545.513 237.615h316.509c3.724 0 5.585 1.862 3.724 5.585l-117.295 173.149c-1.862 3.724-5.585 3.724-7.447 0l-63.302-93.091c-1.862-3.724-5.585-3.724-7.447 0l-33.513 48.407c-1.862 3.724-5.585 3.724-7.447 0l-87.505-128.465c-1.862-3.724 0-5.585 3.724-5.585zM579.025 388.422c22.342 0 40.96 18.618 40.96 40.96s-18.618 40.96-40.96 40.96c-22.342 0-40.96-18.618-40.96-40.96s18.618-40.96 40.96-40.96z" />
<glyph unicode="&#xe90f;" glyph-name="c-cursor" d="M398.466 305.167c5.86-14.649 20.509-23.439 35.159-23.439 16.114 1.465 29.299 11.72 33.694 26.369l20.509 76.177 178.724-178.724c14.649-14.649 36.624-14.649 51.273 0l45.413 45.413c14.649 14.649 14.649 36.624 0 51.273l-178.724 178.724 76.177 20.509c14.649 4.395 26.369 17.579 26.369 33.694 1.465 16.114-8.79 30.764-23.439 35.159l-353.053 133.31c-13.185 4.395-27.834 1.465-38.089-8.79s-13.185-24.904-8.79-38.089l134.775-351.588zM512.732 930.701c-266.621 0-483.433-216.813-483.433-483.433s216.813-483.433 483.433-483.433c266.621 0 483.433 216.813 483.433 483.433 1.465 266.621-215.348 483.433-483.433 483.433zM515.662-21.516c-259.296 0-468.784 208.023-468.784 467.319 0 257.831 209.488 467.319 467.319 467.319s467.319-209.488 467.319-467.319c1.465-259.296-208.023-467.319-465.854-467.319z" />
<glyph unicode="&#xe910;" glyph-name="c-design" d="M465.189 436.297c-20.48 8.777-42.423 2.926-48.274-10.24-2.926-7.314-7.314-32.183-20.48-42.423s-38.034-8.777-38.034-8.777c58.514-20.48 127.269 4.389 133.12 20.48 4.389 13.166-5.851 32.183-26.331 40.96zM469.577 446.537l20.48-17.554c2.926-2.926 5.851-1.463 8.777 0l219.429 241.371c16.091 20.48 19.017 39.497 4.389 58.514s-46.811 10.24-61.44-5.851l-190.171-267.703c-4.389-2.926-2.926-7.314-1.463-8.777zM674.377 724.48c8.777 5.851 19.017 4.389 19.017 4.389s-8.777-4.389-16.091-11.703c-4.389-4.389-7.314-13.166-7.314-13.166l-8.777 10.24c1.463 0 7.314 5.851 13.166 10.24zM800.183 649.874h-83.383l-33.646-39.497h98.011v-292.571h-538.331v292.571h314.514l26.331 39.497h-359.863c-10.24 0-19.017-8.777-19.017-19.017v-371.566c0-10.24 8.777-19.017 19.017-19.017h577.829c10.24 0 19.017 8.777 19.017 19.017v371.566c-1.463 10.24-10.24 19.017-20.48 19.017zM593.92 171.52c-17.554 10.24-17.554 46.811-17.554 46.811h-130.194c0 0 1.463-36.571-17.554-46.811-16.091-8.777-14.629-16.091-7.314-14.629h171.154c8.777-1.463 26.331-1.463 1.463 14.629zM512 930.743c-266.24 0-482.743-216.503-482.743-482.743s216.503-482.743 482.743-482.743c266.24 0 482.743 216.503 482.743 482.743s-216.503 482.743-482.743 482.743zM513.463-20.114c-257.463 0-466.651 207.726-466.651 466.651s209.189 466.651 466.651 466.651 466.651-209.189 466.651-466.651-207.726-466.651-466.651-466.651z" />
<glyph unicode="&#xe911;" glyph-name="c-mobile" d="M512 930.743c-266.24 0-482.743-216.503-482.743-482.743s216.503-482.743 482.743-482.743c266.24 0 482.743 216.503 482.743 482.743s-216.503 482.743-482.743 482.743zM513.463-20.114c-257.463 0-466.651 207.726-466.651 466.651 0 257.463 209.189 466.651 466.651 466.651 258.926 0 466.651-209.189 466.651-466.651 0-258.926-207.726-466.651-466.651-466.651zM672.914 633.783v0 92.16c0 26.331-21.943 48.274-48.274 48.274h-223.817c-26.331 0-48.274-21.943-48.274-48.274v-35.109h-1.463c0 0-1.463 0-1.463-1.463v-24.869c0 0 0-1.463 1.463-1.463v0-30.72c0 0-1.463 0-1.463-1.463v-46.811c0 0 0-1.463 1.463-1.463v0-11.703c0 0-1.463 0-1.463-1.463v-46.811c0 0 0-1.463 1.463-1.463v0-364.251c0-26.331 21.943-48.274 48.274-48.274h222.354c27.794 0 48.274 21.943 48.274 48.274v424.229h2.926c0 0 1.463 0 1.463 1.463l-1.463 51.2c1.463 0 1.463 0 0 0zM512 756.663c1.463 0 2.926-1.463 2.926-2.926s-1.463-2.926-2.926-2.926c-1.463 0-2.926 1.463-2.926 2.926s1.463 2.926 2.926 2.926zM488.594 734.72h46.811c1.463 0 2.926-1.463 2.926-2.926s-1.463-2.926-2.926-2.926h-46.811c-1.463 0-2.926 1.463-2.926 2.926s1.463 2.926 2.926 2.926zM460.8 737.646c2.926 0 5.851-2.926 5.851-5.851s-2.926-5.851-5.851-5.851c-2.926 0-5.851 2.926-5.851 5.851s2.926 5.851 5.851 5.851zM512 132.023c-13.166 0-24.869 11.703-24.869 24.869s11.703 24.869 24.869 24.869c13.166 0 24.869-11.703 24.869-24.869s-11.703-24.869-24.869-24.869zM652.434 193.463h-280.869v500.297h280.869v-500.297z" />
<glyph unicode="&#xe912;" glyph-name="c-pted" d="M512 948.297c-266.24 0-482.743-216.503-482.743-482.743s216.503-482.743 482.743-482.743c266.24 0 482.743 216.503 482.743 482.743s-216.503 482.743-482.743 482.743zM513.463-4.023c-257.463 0-466.651 209.189-466.651 466.651 0 258.926 209.189 468.114 466.651 468.114 258.926 0 466.651-209.189 466.651-466.651 0-258.926-207.726-468.114-466.651-468.114zM222.354 687.909c0 0 55.589-35.109 119.954-13.166s121.417 27.794 155.063 1.463v-389.12c0 0-62.903 35.109-122.88 14.629-64.366-21.943-137.509 2.926-152.137 20.48v365.714zM838.217 238.811v377.417h-14.629v-337.92c-21.943-27.794-109.714-29.257-174.080-7.314-61.44 20.48-122.88-14.629-122.88-14.629s-13.166-10.24-26.331 0c0 0-62.903 35.109-122.88 14.629-64.366-21.943-152.137-19.017-174.080 7.314v337.92h-14.629v-377.417h649.509zM801.646 687.909c0 0-55.589-35.109-119.954-13.166s-121.417 27.794-155.063 1.463v-389.12c0 0 62.903 35.109 122.88 14.629 64.366-21.943 137.509 2.926 152.137 20.48v365.714z" />
<glyph unicode="&#xe913;" glyph-name="c-reptrack" d="M512 930.743c-266.24 0-482.743-216.503-482.743-482.743s216.503-482.743 482.743-482.743c266.24 0 482.743 216.503 482.743 482.743s-216.503 482.743-482.743 482.743zM513.463-20.114c-257.463 0-466.651 207.726-466.651 466.651 0 257.463 209.189 466.651 466.651 466.651 258.926 0 466.651-209.189 466.651-466.651 0-258.926-207.726-466.651-466.651-466.651zM535.406 426.057c-4.389 2.926-11.703 2.926-16.091 0l-55.589-35.109c-4.389-2.926-7.314-1.463-5.851 4.389l16.091 64.366c1.463 5.851-1.463 13.166-5.851 16.091l-51.2 42.423c-4.389 2.926-2.926 7.314 2.926 7.314l65.829 4.389c5.851 0 11.703 4.389 13.166 10.24l24.869 61.44c1.463 4.389 5.851 4.389 7.314 0l24.869-61.44c1.463-4.389 8.777-8.777 13.166-10.24l65.829-4.389c5.851 0 5.851-2.926 2.926-7.314l-51.2-42.423c-4.389-2.926-5.851-10.24-5.851-16.091l16.091-64.366c1.463-5.851-1.463-7.314-5.851-4.389l-55.589 35.109zM813.349 586.971v-197.486c0-58.514-48.274-106.789-106.789-106.789h-171.154l-119.954-119.954c-2.926-2.926-7.314-5.851-13.166-5.851-2.926 0-4.389 0-7.314 1.463-7.314 2.926-11.703 8.777-11.703 16.091v106.789h-35.109c-58.514 0-106.789 48.274-106.789 106.789v198.949c0 58.514 48.274 106.789 106.789 106.789h356.937c59.977 0 108.251-48.274 108.251-106.789zM778.24 586.971c0 39.497-32.183 71.68-71.68 71.68h-358.4c-39.497 0-71.68-32.183-71.68-71.68v-197.486c0-39.497 32.183-71.68 71.68-71.68h71.68v-99.474l99.474 99.474h185.783c39.497 0 71.68 32.183 71.68 71.68v197.486z" />
<glyph unicode="&#xe914;" glyph-name="c-responsive" d="M512 920.503c-266.24 0-482.743-216.503-482.743-482.743s216.503-482.743 482.743-482.743c266.24 0 482.743 216.503 482.743 482.743s-216.503 482.743-482.743 482.743zM513.463-31.817c-257.463 0-466.651 209.189-466.651 466.651s209.189 466.651 466.651 466.651c258.926 1.463 466.651-207.726 466.651-466.651 0-257.463-207.726-466.651-466.651-466.651zM649.509 434.834v-39.497h45.349v39.497h-45.349zM389.12 588.434h-76.069v-99.474h76.069v99.474zM617.326 588.434h-76.069v-99.474h32.183c5.851 13.166 20.48 23.406 36.571 23.406h7.314v76.069zM504.686 588.434h-77.531v-99.474h77.531v99.474zM784.091 507.977h-30.72v-52.663h30.72v52.663zM649.509 369.006v-39.497h76.069v29.257c-7.314 2.926-11.703 5.851-17.554 10.24h-58.514zM260.389 360.229v280.869h408.137v-128.731h26.331v140.434c0 7.314-5.851 13.166-13.166 13.166h-434.469c-7.314 0-13.166-5.851-13.166-13.166v-336.457c0-7.314 5.851-13.166 13.166-13.166h323.291v57.051h-310.126zM731.429 543.086h74.606c7.314 0 13.166-5.851 13.166-13.166v-133.12c0-7.314-5.851-13.166-13.166-13.166h-74.606c-7.314 0-13.166 5.851-13.166 13.166v133.12c0 7.314 5.851 13.166 13.166 13.166zM731.429 415.817h74.606v115.566h-74.606v-115.566zM731.429 529.92v0 0 0 0 0zM760.686 395.337h17.554c2.926 0 5.851 2.926 5.851 5.851s-2.926 5.851-5.851 5.851h-17.554c-2.926 0-5.851-2.926-5.851-5.851s2.926-5.851 5.851-5.851zM610.011 487.497c-7.314 0-13.166-5.851-13.166-13.166v-213.577c0-7.314 5.851-13.166 13.166-13.166h153.6c7.314 0 13.166 5.851 13.166 13.166v98.011h-26.331v-84.846h-128.731v187.246h71.68v26.331h-83.383zM356.937 196.389c-7.314 0-13.166 5.851-13.166 13.166s5.851 13.166 13.166 13.166h73.143v62.903h70.217v-62.903h73.143c7.314 0 13.166-5.851 13.166-13.166s-5.851-13.166-13.166-13.166h-216.503zM438.857 323.657c-4.389 0-8.777 4.389-8.777 8.777s4.389 8.777 8.777 8.777h52.663c4.389 0 8.777-4.389 8.777-8.777s-4.389-8.777-8.777-8.777h-52.663z" />
<glyph unicode="&#xe915;" glyph-name="c-seo" d="M512 930.743c-266.24 0-482.743-216.503-482.743-482.743s216.503-482.743 482.743-482.743c266.24 0 482.743 216.503 482.743 482.743s-216.503 482.743-482.743 482.743zM513.463-20.114c-257.463 0-466.651 207.726-466.651 466.651s209.189 466.651 466.651 466.651c258.926 0 466.651-209.189 466.651-466.651s-207.726-466.651-466.651-466.651zM345.234 537.234c0 14.629 2.926 30.72 7.314 43.886-17.554-20.48-27.794-46.811-27.794-76.069 0-62.903 51.2-115.566 115.566-115.566 21.943 0 40.96 5.851 58.514 16.091-7.314-1.463-13.166-1.463-20.48-1.463-74.606 0-133.12 59.977-133.12 133.12zM765.074 263.68l-99.474 98.011c-13.166 13.166-30.72 14.629-43.886 7.314l-17.554 17.554c27.794 35.109 45.349 78.994 45.349 127.269 0 111.177-90.697 201.874-201.874 201.874s-201.874-90.697-201.874-201.874c0-111.177 90.697-201.874 201.874-201.874 45.349 0 87.771 14.629 121.417 40.96l17.554-17.554c-7.314-13.166-4.389-30.72 7.314-42.423l99.474-98.011c14.629-14.629 35.109-16.091 48.274-2.926l26.331 26.331c13.166 10.24 11.703 30.72-2.926 45.349zM449.097 349.989c-90.697 0-162.377 73.143-162.377 162.377 0 90.697 73.143 162.377 162.377 162.377 90.697 0 162.377-73.143 162.377-162.377s-73.143-162.377-162.377-162.377z" />
<glyph unicode="&#xe916;" glyph-name="c-social" d="M514.926 920.503c-266.24 0-482.743-216.503-482.743-482.743s216.503-482.743 482.743-482.743c266.24 0 482.743 216.503 482.743 482.743 1.463 266.24-215.040 482.743-482.743 482.743zM517.851-31.817c-257.463 0-466.651 209.189-466.651 466.651s209.189 466.651 466.651 466.651c257.463 0 466.651-209.189 466.651-466.651s-209.189-466.651-466.651-466.651zM256 503.589h178.469v-302.811h-178.469v302.811zM773.851 455.314c0 17.554-17.554 46.811-48.274 46.811l-81.92 1.463c0 0 1.463 51.2 1.463 80.457s20.48 90.697 20.48 90.697l-70.217 1.463c0 0-61.44-163.84-93.623-194.56-23.406-23.406-70.217-23.406-70.217-23.406v-209.189h52.663c20.48 0 87.771-42.423 105.326-42.423h121.417c35.109 0 65.829 51.2 64.366 73.143-1.463 20.48-1.463 157.989-1.463 175.543zM747.52 300.251c1.463-20.48-27.794-68.754-59.977-68.754h-98.011c-16.091 0-78.994 39.497-98.011 39.497h-55.589v159.451c0 0 51.2 8.777 81.92 32.183 45.349 32.183 90.697 181.394 90.697 181.394h24.869c0 0-11.703-42.423-14.629-68.754-1.463-20.48-5.851-99.474-5.851-99.474l90.697-1.463c27.794 0 45.349-26.331 45.349-43.886s-2.926-108.251-1.463-130.194z" />
<glyph unicode="&#xe917;" glyph-name="c-vidtour" d="M512 920.503c-266.24 0-482.743-216.503-482.743-482.743s216.503-482.743 482.743-482.743c266.24 0 482.743 216.503 482.743 482.743s-216.503 482.743-482.743 482.743zM513.463-31.817c-257.463 0-466.651 209.189-466.651 466.651s209.189 466.651 466.651 466.651c258.926 1.463 466.651-207.726 466.651-466.651 0-257.463-207.726-466.651-466.651-466.651zM694.857 584.046v10.24c0 14.629-13.166 27.794-27.794 27.794h-273.554c-14.629 0-27.794-13.166-27.794-27.794v-245.76c0-14.629 13.166-27.794 27.794-27.794h11.703v245.76c0 8.777 5.851 17.554 13.166 17.554h276.48zM150.674 556.251h-7.314v-11.703c0-14.629 13.166-27.794 27.794-27.794h172.617v39.497h-193.097zM191.634 490.423h-7.314v-11.703c0-14.629 13.166-27.794 27.794-27.794h133.12v39.497h-153.6zM244.297 426.057h-7.314v-11.703c0-14.629 13.166-27.794 27.794-27.794h80.457v39.497h-100.937zM791.406 292.937h-321.829v226.743h321.829v-226.743zM800.183 556.251h-340.846c-14.629 0-27.794-13.166-27.794-27.794v-245.76c0-14.629 13.166-27.794 27.794-27.794h340.846c14.629 0 27.794 13.166 27.794 27.794v245.76c0 16.091-11.703 27.794-27.794 27.794zM516.389 322.194h226.743c2.926 0 2.926 1.463 1.463 4.389l-84.846 122.88c-1.463 1.463-4.389 1.463-5.851 0l-45.349-67.291c-1.463-1.463-4.389-1.463-5.851 0l-23.406 35.109c-1.463 1.463-4.389 1.463-5.851 0l-62.903-92.16c2.926-1.463 2.926-2.926 5.851-2.926zM541.257 430.446c16.091 0 29.257 13.166 29.257 29.257s-13.166 29.257-29.257 29.257c-16.091 0-29.257-13.166-29.257-29.257s13.166-29.257 29.257-29.257z" />
</font>
</defs>
</svg>
